<?xml version="1.0" encoding="utf-8"?>
<svg width="20px" height="20px" viewBox="0 0 20 20" version="1.1"
    xmlns:xlink="http://www.w3.org/1999/xlink"
    xmlns="http://www.w3.org/2000/svg">
    <desc>Created with Lunacy</desc>
    <path d="M0 9.6875C0 4.3458 4.3458 0 9.6875 0C15.0292 0 19.375 4.3458 19.375 9.6875C19.375 15.0292 15.0292 19.375 9.6875 19.375C4.3458 19.375 0 15.0292 0 9.6875ZM10.8359 6.4996C13.7783 5.3967 15.0239 3.7225 15.1727 3.5105C13.1377 1.7051 10.3725 1.023 7.7484 1.6555C7.9771 1.9618 9.48 4.0083 10.8359 6.4996ZM6.1696 2.2117C6.3877 2.5109 7.8664 4.56 9.2374 6.9972C5.3668 8.0251 1.9577 8.0103 1.5877 8.0054C2.1242 5.4377 3.8546 3.3036 6.1696 2.2117ZM16.0926 4.4674C17.245 5.8755 17.9429 7.6689 17.9611 9.6219C17.6883 9.5642 14.9526 9.0093 12.1993 9.3556C11.9746 8.8071 11.7626 8.3246 11.4721 7.73C14.5315 6.4809 15.9181 4.7034 16.0926 4.4674ZM1.4171 9.4473C1.4146 9.5313 1.4129 9.6155 1.4129 9.7001C1.4129 11.8254 2.2185 13.7658 3.5401 15.2328C4.8814 12.9367 7.6 10.5167 10.5921 9.6739C10.3844 9.2039 10.1581 8.7333 9.9213 8.2697C5.789 9.5064 1.7791 9.4547 1.4171 9.4473ZM12.7033 10.6598C13.7856 13.6339 14.226 16.0562 14.3108 16.5596C16.1671 15.3043 17.4887 13.3159 17.8575 11.0136C17.5744 10.9242 15.2963 10.2448 12.7033 10.6598ZM4.6085 16.228C5.4728 14.4611 7.8186 12.1802 11.1545 11.0422C12.3162 14.0611 12.7967 16.5911 12.9197 17.3171C10.2591 18.4504 7.0598 18.1395 4.6085 16.228Z" id="Shape" fill="#0D0D0D" fill-rule="evenodd" stroke="none" />
</svg>