<?xml version="1.0" encoding="utf-8"?>
<svg width="20px" height="20px" viewBox="0 0 20 20" version="1.1"
    xmlns:xlink="http://www.w3.org/1999/xlink"
    xmlns="http://www.w3.org/2000/svg">
    <desc>Created with Lunacy</desc>
    <path d="M0 9.8387C0 4.246 4.2782 0 9.871 0C15.4637 0 20 4.246 20 9.8387C20 14.3105 17.2661 18.1371 13.2339 19.4758C12.7218 19.5685 12.5363 19.25 12.5363 18.9879C12.5363 18.6573 12.5484 16.9758 12.5484 15.6169C12.5484 14.6694 12.2339 14.0645 11.8629 13.746C14.1169 13.4919 16.4919 13.1815 16.4919 9.2903C16.4919 8.1855 16.0968 7.629 15.4516 6.9153C15.5565 6.6532 15.8992 5.5766 15.3468 4.1774C14.504 3.9113 12.5645 5.2661 12.5645 5.2661C11.7581 5.0403 10.8911 4.9234 10.0323 4.9234C9.1734 4.9234 8.3065 5.0403 7.5 5.2661C7.5 5.2661 5.5605 3.9153 4.7177 4.1774C4.1653 5.5726 4.5081 6.6532 4.6129 6.9153C3.9677 7.625 3.6613 8.1815 3.6613 9.2903C3.6613 13.1694 5.9355 13.496 8.1895 13.746C7.8992 14.0121 7.6371 14.4597 7.5444 15.1048C6.9677 15.371 5.4879 15.8185 4.6048 14.2621C4.0524 13.3024 3.0484 13.2218 3.0484 13.2218C2.0605 13.2097 2.9839 13.8427 2.9839 13.8427C3.6452 14.1452 4.1048 15.3185 4.1048 15.3185C4.6976 17.125 7.5202 16.5202 7.5202 16.5202C7.5202 17.3669 7.5323 18.746 7.5323 18.996C7.5323 19.2581 7.3508 19.5766 6.8347 19.4839C2.8145 18.1371 0 14.3105 0 9.8387ZM3.5766 13.7379C3.496 13.6976 3.4556 13.6331 3.4839 13.5806C3.5121 13.5403 3.5766 13.5282 3.6573 13.5524C3.7379 13.5927 3.7782 13.6573 3.75 13.7097C3.7218 13.7661 3.6411 13.7782 3.5766 13.7379ZM3.9194 13.9073C3.8669 13.9476 3.879 14.0403 3.9476 14.1169C4.0121 14.1815 4.1048 14.2097 4.1573 14.1573C4.2097 14.1169 4.1976 14.0242 4.129 13.9476C4.0645 13.8831 3.9718 13.8548 3.9194 13.9073ZM4.3306 14.6613C4.2661 14.5685 4.2661 14.4637 4.3306 14.4234C4.3952 14.371 4.5 14.4113 4.5565 14.504C4.621 14.5968 4.621 14.7016 4.5565 14.754C4.504 14.7944 4.3952 14.754 4.3306 14.6613ZM4.7903 15.0161C4.7258 15.0685 4.75 15.1895 4.8427 15.2661C4.9355 15.3589 5.0524 15.371 5.1048 15.3065C5.1573 15.254 5.1331 15.1331 5.0524 15.0565C4.9637 14.9637 4.8427 14.9516 4.7903 15.0161ZM5.6089 15.7177C5.4879 15.6935 5.4073 15.6008 5.4355 15.5202C5.4637 15.4395 5.5806 15.3992 5.6855 15.4274C5.8065 15.4637 5.8831 15.5565 5.8589 15.6371C5.8347 15.7177 5.7137 15.7581 5.6089 15.7177ZM7.2177 15.4516C7.1008 15.4798 7.0202 15.5565 7.0323 15.6492C7.0444 15.7298 7.1492 15.7823 7.2702 15.754C7.3871 15.7258 7.4677 15.6492 7.4556 15.5685C7.4435 15.4919 7.3347 15.4395 7.2177 15.4516ZM6.6895 15.7016C6.6895 15.7823 6.5968 15.8468 6.4798 15.8468C6.3468 15.8589 6.254 15.7944 6.254 15.7016C6.254 15.621 6.3468 15.5565 6.4637 15.5565C6.5847 15.5444 6.6895 15.6089 6.6895 15.7016Z" id="Shape" fill="#0D0D0D" fill-rule="evenodd" stroke="none" />
</svg>