<?xml version="1.0" encoding="utf-8"?>
<svg width="21px" height="21px" viewBox="0 0 21 21" version="1.1"
    xmlns:xlink="http://www.w3.org/1999/xlink"
    xmlns="http://www.w3.org/2000/svg">
    <desc>Created with Lunacy</desc>
    <path d="M19.9408 5.8783C19.8649 4.2757 19.4989 2.856 18.3247 1.6864C17.1551 0.516742 15.7355 0.150673 14.1328 0.0703125C12.481 -0.0234375 7.5301 -0.0234375 5.8783 0.0703125C4.2801 0.146213 2.8605 0.512282 1.6864 1.6819C0.512282 2.8516 0.150672 4.2712 0.0703125 5.8739C-0.0234375 7.5257 -0.0234375 12.4766 0.0703125 14.1283C0.146213 15.731 0.512282 17.1507 1.6864 18.3203C2.8605 19.49 4.2757 19.856 5.8783 19.9364C7.5301 20.0301 12.481 20.0301 14.1328 19.9364C15.7355 19.8605 17.1551 19.4944 18.3247 18.3203C19.4944 17.1507 19.8605 15.731 19.9408 14.1283C20.0346 12.4766 20.0346 7.5301 19.9408 5.8783ZM15.9051 17.8025C16.7846 17.4498 17.4587 16.7757 17.8069 15.9007C18.2549 14.7749 18.23 12.3123 18.2138 10.716C18.2111 10.4513 18.2087 10.2103 18.2087 10.0033C18.2087 9.79624 18.2111 9.55539 18.2138 9.29074C18.23 7.69536 18.2549 5.23562 17.8069 4.106C17.4542 3.2266 16.7801 2.5525 15.9051 2.2042C14.7759 1.7587 12.3016 1.78244 10.7058 1.79775C10.4468 1.80024 10.211 1.8025 10.0078 1.8025C9.80062 1.8025 9.55959 1.80006 9.29477 1.79737C7.69931 1.78119 5.23993 1.75626 4.1105 2.2042C3.231 2.5569 2.5569 3.231 2.2087 4.106C1.7631 5.23528 1.78684 7.70967 1.80216 9.30546C1.80464 9.56437 1.8069 9.80015 1.8069 10.0033C1.8069 10.2104 1.80446 10.4513 1.80178 10.7159C1.78563 12.3114 1.76072 14.7711 2.2087 15.9007C2.5614 16.7801 3.2355 17.4542 4.1105 17.8025C5.23976 18.248 7.71398 18.2243 9.30981 18.2089C9.56877 18.2065 9.8046 18.2042 10.0078 18.2042C10.215 18.2042 10.456 18.2066 10.7208 18.2093C12.3163 18.2255 14.7756 18.2504 15.9051 17.8025ZM15.3471 5.8605C16.0078 5.8605 16.5435 5.3292 16.5435 4.6641C16.5435 4.0033 16.0078 3.4676 15.3471 3.4676C14.6864 3.4676 14.1506 4.0033 14.1506 4.6641C14.1506 5.3248 14.6819 5.8605 15.3471 5.8605ZM4.8783 10.0033C4.8783 7.1641 7.1685 4.8739 10.0078 4.8739C12.8471 4.8739 15.1373 7.1641 15.1373 10.0033C15.1373 12.8426 12.8471 15.1328 10.0078 15.1328C7.1685 15.1328 4.8783 12.8426 4.8783 10.0033ZM10.0078 13.3382C8.173 13.3382 6.673 11.8426 6.673 10.0033C6.673 8.1641 8.1685 6.6685 10.0078 6.6685C11.8471 6.6685 13.3426 8.1641 13.3426 10.0033C13.3426 11.8426 11.8426 13.3382 10.0078 13.3382Z" id="Shape" fill="#0D0D0D" fill-rule="evenodd" stroke="none" />
</svg>