<?xml version="1.0" encoding="utf-8"?>
<svg width="198px" height="31px" viewBox="0 0 198 31" version="1.1"
    xmlns:xlink="http://www.w3.org/1999/xlink"
    xmlns="http://www.w3.org/2000/svg">
    <desc>Created with Lunacy</desc>
    <g id="logo" transform="translate(1 1)">
        <path d="M26.5 6.981C26.5 3.13143 23.3686 0 19.5192 0C16.8204 0 14.4016 1.57181 13.2501 3.91239C12.0984 1.57181 9.6794 0 6.9808 0C3.13142 0 0 3.13143 0 6.981C0 9.6777 1.51822 12.0558 3.8414 13.2156C1.51822 14.3753 0 16.7534 0 19.4502C0 23.2997 3.13142 26.4312 6.9808 26.4312C9.6794 26.4312 12.0984 24.8593 13.2501 22.5188C14.4016 24.8593 16.8204 26.4312 19.5192 26.4312C23.3686 26.4312 26.5 23.2997 26.5 19.4502C26.5 16.7534 24.9818 14.3753 22.6586 13.2156C24.9818 12.0558 26.5 9.6777 26.5 6.981Z" transform="translate(0.75 0.75)" id="Shape" fill="none" stroke="#3DB370" stroke-width="2" />
        <path d="M81.757 7.245C85.864 7.245 87.917 9.7883 87.917 14.875L87.917 24.22C87.917 24.6867 87.754 25.0833 87.427 25.41C87.124 25.7367 86.727 25.9 86.237 25.9C85.77 25.9 85.374 25.7367 85.047 25.41C84.744 25.0833 84.592 24.6867 84.592 24.22L84.592 14.875C84.592 11.8417 83.309 10.325 80.742 10.325C79.365 10.325 78.222 10.7683 77.312 11.655C76.402 12.5183 75.947 13.5917 75.947 14.875L75.947 24.22C75.947 24.6867 75.784 25.0833 75.457 25.41C75.154 25.7367 74.757 25.9 74.267 25.9C73.777 25.9 73.38 25.7483 73.077 25.445C72.774 25.1183 72.622 24.71 72.622 24.22L72.622 1.68C72.622 1.21333 72.774 0.81667 73.077 0.49C73.404 0.16333 73.8 0 74.267 0C74.757 0 75.154 0.16333 75.457 0.49C75.784 0.81667 75.947 1.21333 75.947 1.68L75.947 10.535C76.53 9.625 77.347 8.855 78.397 8.225C79.447 7.5717 80.567 7.245 81.757 7.245ZM149.875 0C150.365 0 150.762 0.16333 151.065 0.49C151.392 0.79333 151.555 1.19 151.555 1.68L151.555 24.22C151.555 24.6867 151.392 25.0833 151.065 25.41C150.762 25.7367 150.365 25.9 149.875 25.9C149.385 25.9 148.988 25.7483 148.685 25.445C148.382 25.1183 148.23 24.71 148.23 24.22L148.23 23.24C147.647 24.08 146.818 24.7917 145.745 25.375C144.695 25.9583 143.563 26.25 142.35 26.25C140.763 26.25 139.328 25.8417 138.045 25.025C136.762 24.2083 135.747 23.0767 135 21.63C134.253 20.16 133.88 18.515 133.88 16.695C133.88 14.875 134.242 13.2417 134.965 11.795C135.712 10.325 136.727 9.1817 138.01 8.365C139.293 7.5483 140.705 7.14 142.245 7.14C143.482 7.14 144.625 7.3967 145.675 7.91C146.725 8.4233 147.577 9.0883 148.23 9.905L148.23 1.68C148.23 1.19 148.382 0.79333 148.685 0.49C148.988 0.16333 149.385 0 149.875 0ZM3.43 4.62L3.43 11.865L12.04 11.865C12.53 11.865 12.9267 12.0167 13.23 12.32C13.5567 12.6233 13.72 13.02 13.72 13.51C13.72 13.93 13.5567 14.2917 13.23 14.595C12.9267 14.8983 12.53 15.05 12.04 15.05L3.43 15.05L3.43 24.22C3.43 24.6867 3.255 25.0833 2.905 25.41C2.5783 25.7367 2.1817 25.9 1.715 25.9C1.225 25.9 0.8167 25.7367 0.49 25.41C0.1633 25.0833 0 24.6867 0 24.22L0 3.08C0 2.61333 0.1633 2.21666 0.49 1.89C0.8167 1.56333 1.2133 1.4 1.68 1.4L13.615 1.4C14.105 1.4 14.5017 1.55167 14.805 1.855C15.1317 2.15833 15.295 2.555 15.295 3.045C15.295 3.465 15.1317 3.83833 14.805 4.165C14.4783 4.46833 14.0817 4.62 13.615 4.62L3.43 4.62ZM29.7382 7.63C29.2949 7.3033 28.7699 7.14 28.1632 7.14C26.8566 7.1633 25.6899 7.5367 24.6632 8.26C23.6366 8.96 22.8666 9.8817 22.3532 11.025L22.3532 9.24C22.3532 8.7733 22.1899 8.3767 21.8632 8.05C21.5599 7.7233 21.1632 7.56 20.6732 7.56C20.2066 7.56 19.8099 7.7233 19.4832 8.05C19.1799 8.3767 19.0282 8.7733 19.0282 9.24L19.0282 24.22C19.0282 24.71 19.1799 25.1183 19.4832 25.445C19.7866 25.7483 20.1832 25.9 20.6732 25.9C21.1632 25.9 21.5599 25.7367 21.8632 25.41C22.1899 25.0833 22.3532 24.6867 22.3532 24.22L22.3532 15.785C22.3532 14.7117 22.5632 13.7433 22.9832 12.88C23.4266 11.9933 23.9866 11.305 24.6632 10.815C25.3632 10.3017 26.0749 10.045 26.7982 10.045C27.0782 10.045 27.4632 10.1267 27.9532 10.29C28.3732 10.43 28.6882 10.5 28.8982 10.5C29.3182 10.5 29.6682 10.36 29.9482 10.08C30.2516 9.7767 30.4032 9.345 30.4032 8.785C30.4032 8.3183 30.1816 7.9333 29.7382 7.63ZM48.8001 16.03C48.7768 16.45 48.6018 16.8117 48.2751 17.115C47.9485 17.395 47.5635 17.535 47.1201 17.535L34.8001 17.535C34.9635 19.2383 35.6051 20.6033 36.7251 21.63C37.8685 22.6567 39.2568 23.17 40.8901 23.17C42.0101 23.17 42.9201 23.0067 43.6201 22.68C44.3201 22.3533 44.9385 21.9333 45.4751 21.42C45.8251 21.21 46.1635 21.105 46.4901 21.105C46.8868 21.105 47.2135 21.245 47.4701 21.525C47.7501 21.805 47.8901 22.1317 47.8901 22.505C47.8901 22.995 47.6568 23.4383 47.1901 23.835C46.5135 24.5117 45.6151 25.0833 44.4951 25.55C43.3751 26.0167 42.2318 26.25 41.0651 26.25C39.1751 26.25 37.5068 25.8533 36.0601 25.06C34.6368 24.2667 33.5285 23.1583 32.7351 21.735Q31.5801 19.6 31.5801 16.905C31.5801 14.945 31.9768 13.23 32.7701 11.76C33.5868 10.2667 34.6485 9.1233 35.9551 8.33C37.2851 7.5367 38.7085 7.14 40.2251 7.14Q42.4652 7.14 44.4251 8.295C45.7318 9.065 46.7818 10.1267 47.5751 11.48C48.3685 12.8333 48.7768 14.35 48.8001 16.03ZM68.761 16.03C68.738 16.45 68.563 16.8117 68.236 17.115C67.909 17.395 67.524 17.535 67.081 17.535L54.7611 17.535C54.9244 19.2383 55.5661 20.6033 56.686 21.63C57.829 22.6567 59.218 23.17 60.851 23.17C61.971 23.17 62.881 23.0067 63.581 22.68C64.281 22.3533 64.899 21.9333 65.436 21.42C65.786 21.21 66.124 21.105 66.451 21.105C66.848 21.105 67.174 21.245 67.431 21.525C67.711 21.805 67.851 22.1317 67.851 22.505C67.851 22.995 67.618 23.4383 67.151 23.835C66.474 24.5117 65.576 25.0833 64.456 25.55C63.336 26.0167 62.193 26.25 61.026 26.25C59.136 26.25 57.468 25.8533 56.0211 25.06C54.5977 24.2667 53.4894 23.1583 52.6961 21.735C51.9261 20.3117 51.5411 18.7017 51.5411 16.905C51.5411 14.945 51.9377 13.23 52.7311 11.76C53.5477 10.2667 54.6094 9.1233 55.9161 8.33C57.246 7.5367 58.669 7.14 60.186 7.14Q62.4255 7.14 64.386 8.295C65.693 9.065 66.743 10.1267 67.536 11.48C68.329 12.8333 68.738 14.35 68.761 16.03ZM108.956 7.805C108.652 7.4783 108.256 7.315 107.766 7.315C107.276 7.315 106.879 7.4783 106.576 7.805C106.272 8.1317 106.121 8.54 106.121 9.03L106.121 9.87C105.491 9.0767 104.639 8.4233 103.566 7.91C102.516 7.3967 101.372 7.14 100.136 7.14C98.596 7.14 97.184 7.5483 95.901 8.365C94.617 9.1817 93.602 10.325 92.856 11.795C92.132 13.2417 91.771 14.875 91.771 16.695C91.771 18.515 92.132 20.16 92.856 21.63C93.602 23.0767 94.617 24.2083 95.901 25.025C97.207 25.8417 98.654 26.25 100.241 26.25C101.454 26.25 102.586 25.97 103.636 25.41C104.686 24.8267 105.514 24.1267 106.121 23.31L106.121 24.22C106.121 24.71 106.272 25.1183 106.576 25.445C106.879 25.7483 107.276 25.9 107.766 25.9C108.256 25.9 108.652 25.7367 108.956 25.41C109.282 25.0833 109.446 24.6867 109.446 24.22L109.446 9.03C109.446 8.5167 109.282 8.1083 108.956 7.805ZM130.035 24.22L130.035 14.7Q130.035 7.14 123.735 7.14C122.498 7.14 121.331 7.4667 120.235 8.12C119.161 8.75 118.321 9.5317 117.715 10.465L117.715 9.24C117.715 8.7733 117.551 8.3767 117.225 8.05C116.921 7.7233 116.525 7.56 116.035 7.56C115.568 7.56 115.171 7.7233 114.845 8.05C114.541 8.3767 114.39 8.7733 114.39 9.24L114.39 24.22C114.39 24.71 114.541 25.1183 114.845 25.445C115.148 25.7483 115.545 25.9 116.035 25.9C116.525 25.9 116.921 25.7367 117.225 25.41C117.551 25.0833 117.715 24.6867 117.715 24.22L117.715 14.735C117.715 13.9183 117.925 13.1717 118.345 12.495C118.788 11.795 119.383 11.2467 120.13 10.85C120.9 10.43 121.751 10.22 122.685 10.22C124.108 10.22 125.135 10.6283 125.765 11.445C126.395 12.2617 126.71 13.3583 126.71 14.735L126.71 24.22C126.71 24.6867 126.861 25.0833 127.165 25.41C127.491 25.7367 127.888 25.9 128.355 25.9C128.845 25.9 129.241 25.7367 129.545 25.41C129.871 25.0833 130.035 24.6867 130.035 24.22ZM36.8301 11.34C37.7868 10.5933 38.9185 10.22 40.2251 10.22C41.4851 10.22 42.6051 10.6167 43.5851 11.41C44.5885 12.2033 45.1485 13.2183 45.2651 14.455L45.2651 14.735L34.9401 14.735C35.2435 13.195 35.8735 12.0633 36.8301 11.34ZM56.791 11.34C57.748 10.5933 58.879 10.22 60.186 10.22C61.446 10.22 62.566 10.6167 63.546 11.41C64.549 12.2033 65.109 13.2183 65.226 14.455L65.226 14.735L54.9011 14.735C55.2044 13.195 55.8344 12.0633 56.791 11.34ZM100.626 23.17C101.722 23.17 102.691 22.89 103.531 22.33Q104.826 21.49 105.526 20.02C106.016 19.04 106.261 17.9317 106.261 16.695C106.261 15.4817 106.016 14.385 105.526 13.405Q104.826 11.935 103.531 11.095C102.691 10.5117 101.722 10.22 100.626 10.22C99.529 10.22 98.549 10.5 97.686 11.06Q96.426 11.9 95.691 13.37C95.224 14.35 94.991 15.4583 94.991 16.695C94.991 17.9317 95.224 19.04 95.691 20.02Q96.426 21.49 97.686 22.33C98.549 22.89 99.529 23.17 100.626 23.17ZM145.64 22.33C144.8 22.89 143.832 23.17 142.735 23.17C141.638 23.17 140.658 22.89 139.795 22.33C138.955 21.77 138.29 21 137.8 20.02C137.333 19.04 137.1 17.9317 137.1 16.695C137.1 15.4817 137.333 14.385 137.8 13.405C138.29 12.4017 138.955 11.62 139.795 11.06C140.658 10.5 141.638 10.22 142.735 10.22C143.832 10.22 144.8 10.5 145.64 11.06C146.503 11.62 147.168 12.4017 147.635 13.405C148.125 14.385 148.37 15.4817 148.37 16.695C148.37 17.9317 148.125 19.04 147.635 20.02C147.168 21 146.503 21.77 145.64 22.33Z" transform="translate(43.905 2.1)" id="Shape" fill="#16133D" fill-rule="evenodd" stroke="none" />
    </g>
</svg>