<?xml version="1.0" encoding="utf-8"?>
<svg width="25px" height="37px" viewBox="0 0 25 37" version="1.1"
    xmlns:xlink="http://www.w3.org/1999/xlink"
    xmlns="http://www.w3.org/2000/svg">
    <desc>Created with Lunacy</desc>
    <g id="Group-2">
        <path d="M20.1898 0C21.6055 0 22.7536 1.07406 22.7536 2.39845L22.7536 32.379C22.7536 33.7034 21.6055 34.7775 20.1898 34.7775L2.56378 34.7775C1.1481 34.7775 0 33.7034 0 32.379L0 2.39845C0 1.07406 1.1481 0 2.56378 0L20.1898 0Z" transform="translate(0.641113 1.18457)" id="Path" fill="#D1E7FF" stroke="none" />
        <path d="M10.1221 0C10.7358 0 11.2502 0.4324 11.3167 1.0028L12.174 8.3691C12.2517 9.0339 11.6949 9.6148 10.9794 9.6148L1.20181 9.6148C0.486361 9.6148 -0.070459 9.0339 0.00725099 8.3691L0.864521 1.0028C0.931011 0.4324 1.44537 0 2.05907 0L10.1221 0Z" transform="translate(5.926999 14.0552)" id="Path" fill="#B9DCFF" stroke="none" />
        <path d="M20.3109 0.00289555C22.3728 0.0926056 22.2634 2.99833 20.1993 2.99833L11.8575 2.99833C7.07869 2.99833 3.20473 6.62246 3.20473 11.0931L3.20473 34.7778L2.56379 34.7778C1.14786 34.7778 0 33.704 0 32.3793L0 2.39872C0 1.0741 1.14786 0.000265555 2.56379 0.000265555C2.6798 0.000265555 20.2169 -0.00123444 20.3109 0.00289555Z" transform="translate(0.641113 1.184325)" id="Path" fill="#E8F3FF" stroke="none" />
        <path d="M22.7536 0L22.7536 2.8481C22.7536 4.1725 21.6055 5.2466 20.1898 5.2466L2.56378 5.2466C1.1481 5.2466 0 4.1725 0 2.8481L0 0L22.7536 0Z" transform="translate(0.641113 30.7156)" id="Path" fill="#B9DCFF" stroke="none" />
        <path d="M3.20472 0L3.20472 2.857C3.20472 4.8103 0 4.9101 0 2.8481L0 0L3.20472 0Z" transform="translate(0.641113 30.7156)" id="Path" fill="#D1E7FF" stroke="none" />
        <path d="M10.1224 2.2485C6.2401 2.2485 3.06665 4.9827 2.65693 8.505C2.58346 9.1364 2.01342 9.6148 1.33441 9.6148L1.20182 9.6148C0.486361 9.6148 -0.070459 9.0339 0.00725099 8.3691L0.864521 1.0028C0.931021 0.4324 1.44538 0 2.05909 0L10.1222 0C10.7354 0 11.2504 0.432 11.3167 1.0024C11.3943 1.6689 10.8365 2.2485 10.1224 2.2485Z" transform="translate(5.926999 14.0552)" id="Path" fill="#D1E7FF" stroke="none" />
        <path d="M3.20472 0L20.8307 0C22.5978 0 24.0354 1.34493 24.0354 2.99806L24.0354 32.9786C24.0354 34.6318 22.5978 35.9767 20.8307 35.9767L3.20472 35.9767C1.43764 35.9767 0 34.6318 0 32.9786L0 2.99806C0 1.34493 1.43764 0 3.20472 0ZM20.8307 34.7775L3.20472 34.7775C2.14452 34.7775 1.28189 33.9706 1.28189 32.9786L1.28189 2.99806C1.28189 2.00615 2.14452 1.19923 3.20472 1.19923L20.8307 1.19923C21.8909 1.19923 22.7535 2.00615 22.7535 2.99806L22.7535 29.5309L4.40649 29.5309C4.05253 29.5309 3.76555 29.7993 3.76555 30.1305C3.76555 30.4616 4.05253 30.7301 4.40649 30.7301L22.7535 30.7301L22.7535 32.9786C22.7535 33.9706 21.8909 34.7775 20.8307 34.7775ZM7.1289 23.6847L16.9065 23.6847C18.0027 23.6847 18.857 22.7931 18.7384 21.7742L17.8812 14.4083C17.7792 13.5319 16.9916 12.871 16.0493 12.871L15.456 12.871L15.456 11.7609C15.4559 9.98734 13.9135 8.54448 12.0177 8.54448C10.1219 8.54448 8.57952 9.98734 8.57952 11.7609L8.57952 12.8709L7.98616 12.8709C7.04381 12.8709 6.25633 13.5318 6.15426 14.4083L5.29708 21.7742C5.17843 22.7936 6.03337 23.6847 7.1289 23.6847ZM7.42854 14.5381L6.57136 21.904C6.53522 22.2152 6.79497 22.4854 7.1289 22.4854L16.9063 22.4854C17.2418 22.4854 17.4999 22.214 17.4639 21.904L16.6067 14.5381C16.5756 14.2714 16.336 14.0702 16.0492 14.0702L15.4558 14.0702L15.4558 15.0058C15.4558 15.3369 15.1688 15.6054 14.8149 15.6054C14.4609 15.6054 14.1739 15.3369 14.1739 15.0058L14.1739 14.0702L11.4015 14.0702C11.0476 14.0702 10.7606 13.8018 10.7606 13.4706C10.7606 13.1395 11.0476 12.871 11.4015 12.871L14.1739 12.871L14.1739 11.7609C14.1739 10.6486 13.2067 9.74374 12.0176 9.74374C10.8286 9.74374 9.86132 10.6486 9.86132 11.7609L9.86132 15.0058C9.86132 15.3369 9.57434 15.6054 9.22038 15.6054C8.86642 15.6054 8.57944 15.3369 8.57944 15.0058L8.57944 14.0702L7.98608 14.0702C7.69926 14.0702 7.45963 14.2713 7.42854 14.5381ZM12.8189 33.2035C13.1728 33.2035 13.4598 32.935 13.4598 32.6039C13.4598 32.2727 13.1728 32.0043 12.8189 32.0043L11.2165 32.0043C10.8626 32.0043 10.5756 32.2727 10.5756 32.6039C10.5756 32.935 10.8626 33.2035 11.2165 33.2035L12.8189 33.2035Z" transform="translate(0 0.584961)" id="Shape" fill="#007FFC" fill-rule="evenodd" stroke="none" />
    </g>
</svg>