<?xml version="1.0" encoding="utf-8"?>
<svg width="39px" height="37px" viewBox="0 0 39 37" version="1.1"
    xmlns:xlink="http://www.w3.org/1999/xlink"
    xmlns="http://www.w3.org/2000/svg">
    <desc>Created with Lunacy</desc>
    <g id="Group-3">
        <path d="M33.3216 0L33.3216 19.6611C33.3216 20.9852 32.1738 22.0589 30.7584 22.0589L2.56335 22.0589C1.14799 22.0589 0.000169586 20.9852 0.000169586 19.6611C0.000169586 1.074 -0.00152041 4.5559 0.00576959 0L33.3216 0Z" transform="translate(2.56592 13.8462)" id="Path" fill="#D1E7FF" stroke="none" />
        <path d="M33.3216 0L33.3216 4.5409C33.3216 5.5236 32.4795 6.3376 31.4291 6.3416C31.4174 6.3417 1.91291 6.3417 1.8916 6.3416C0.841489 6.3373 4.92132e-05 5.5233 4.92132e-05 4.5409C4.92132e-05 3.2303 -0.000910787 4.1351 0.00564921 0L33.3216 0Z" transform="translate(2.565921 13.8462)" id="Path" fill="#B9DCFF" stroke="none" />
        <path d="M12.9762 2.3979L12.9762 13.1135L0 13.1135L0 2.3979C0 1.0738 1.1479 0 2.5632 0L10.413 0C11.8284 0 12.9762 1.0738 12.9762 2.3979Z" transform="translate(12.7385 22.7915)" id="Path" fill="#E8F3FF" stroke="none" />
        <path d="M37.1676 12.7104C37.1676 15.1095 35.088 17.0566 32.5219 17.0566C29.9563 17.0566 27.8761 15.1105 27.8761 12.7104C27.8761 15.1105 25.7959 17.0566 23.2303 17.0566C20.6647 17.0566 18.5845 15.1105 18.5845 12.7104C18.5845 15.1105 16.5043 17.0566 13.9388 17.0566C11.3732 17.0566 9.29299 15.1105 9.29299 12.7104C9.28899 15.0948 7.19118 17.0566 4.64722 17.0566C2.10638 17.0566 0.00544739 15.0973 0.00144239 12.7104C0.00144239 8.93306 -0.00961061 9.16546 0.0294774 8.99206C0.0679254 8.82193 -0.198566 9.42446 3.8318 0.72237C4.03526 0.284 4.49743 0 5.00767 0L32.1614 0C32.6716 0 33.1338 0.284 33.3373 0.72237C37.3706 9.43096 37.1011 8.82178 37.1396 8.99206C37.1786 9.16516 37.1676 8.92896 37.1676 12.7104Z" transform="translate(0.6420896 1.13574)" id="Path" fill="#B9DCFF" stroke="none" />
        <path d="M37.1693 3.7182C37.1693 6.1173 35.0897 8.0643 32.5235 8.0643C29.9579 8.0643 27.8778 6.1183 27.8778 3.7182C27.8778 6.1183 25.7976 8.0643 23.232 8.0643C20.6664 8.0643 18.5862 6.1183 18.5862 3.7182C18.5862 6.1183 16.506 8.0643 13.9404 8.0643C11.3748 8.0643 9.29461 6.1183 9.29461 3.7182C9.2906 6.1026 7.19279 8.0643 4.64883 8.0643C2.10799 8.0643 0.00705792 6.105 0.00305292 3.7182C-0.00327508 -0.0797 -0.00231408 0.1482 0.0310879 0L37.1413 0C37.1803 0.173 37.1693 -0.0631 37.1693 3.7182Z" transform="translate(0.6406251 10.1279)" id="Path" fill="#A2D0FF" stroke="none" />
        <path d="M31.7857 3.20332C23.6494 2.15573 15.438 3.49939 8.79646 8.18117C8.04889 8.70819 7.13768 8.99216 6.20163 8.99216L0 8.99216C0.038448 8.82201 -0.228044 9.42456 3.80233 0.72237C4.00578 0.28401 4.46796 0 4.97819 0L32.132 0C32.6427 0 33.1046 0.28371 33.3077 0.72207L33.4862 1.10739C33.9865 2.18743 33.0322 3.36383 31.7857 3.20332Z" transform="translate(0.671631 1.13574)" id="Path" fill="#D1E7FF" stroke="none" />
        <path d="M4.80875 10.1912C4.45487 10.1912 4.16795 9.92267 4.16795 9.59167C4.16795 9.26052 4.45479 8.99218 4.80875 8.99218L36.8337 8.99218L33.2239 1.19896L5.22943 1.19896L1.28429 9.71587L1.28429 13.3099C1.28773 15.3754 3.08445 17.0566 5.28927 17.0566C7.46005 17.0566 9.29425 15.415 9.29425 13.2799C9.29425 12.9488 9.58117 12.6804 9.93505 12.6804C10.2889 12.6804 10.5758 12.9488 10.5758 13.2799C10.5758 15.4332 12.4216 17.0566 14.5808 17.0566C16.7892 17.0566 18.5858 15.3758 18.5858 13.3099C18.5858 12.9788 18.8727 12.7104 19.2266 12.7104C19.5805 12.7104 19.8674 12.9788 19.8674 13.3099C19.8674 15.3758 21.664 17.0566 23.8724 17.0566C26.0807 17.0566 27.8774 15.3758 27.8774 13.3099C27.8774 12.9788 28.1643 12.7104 28.5182 12.7104C28.872 12.7104 29.1589 12.9788 29.1589 13.3099C29.1589 15.3758 30.9556 17.0566 33.1639 17.0566C35.3723 17.0566 37.1689 15.3758 37.1689 13.3099C37.1689 12.9788 37.4558 12.7104 37.8097 12.7104C38.1636 12.7104 38.4505 12.9788 38.4505 13.3099C38.4505 16.037 36.079 18.2556 33.1639 18.2556C31.1613 18.2556 29.415 17.2082 28.5182 15.6684C26.511 19.1142 21.2333 19.1134 19.2266 15.6684C17.2183 19.1162 11.9383 19.1124 9.93368 15.6661C9.03617 17.2072 7.29008 18.2556 5.28927 18.2556C2.37885 18.2556 0.00734151 16.0373 0.00269573 13.3108C0.00269573 9.64624 -0.0142818 9.50327 0.0369757 9.39164C0.0423793 9.37987 0.0485413 9.36845 0.0555615 9.35329L4.22074 0.36111C4.32223 0.141926 4.55331 0 4.80867 0L33.6445 0C33.9 0 34.1309 0.141851 34.2325 0.36111C38.3575 9.2664 38.4865 9.46345 38.4533 9.62782C38.4505 9.64185 38.4465 9.65563 38.4437 9.67457C38.4198 9.83257 38.3328 9.97087 38.1996 10.0667C38.185 10.0771 38.1769 10.0868 38.1681 10.0958C38.0229 10.243 37.6759 10.1912 4.80875 10.1912ZM36.5282 32.9713L36.5282 20.3074C36.5282 19.9762 36.2413 19.7079 35.8874 19.7079C35.5335 19.7079 35.2466 19.9763 35.2466 20.3074L35.2466 32.9713C35.2466 33.963 34.3842 34.7698 33.3242 34.7698L19.8675 34.7698L19.8675 25.328C19.8675 24.9969 19.5806 24.7285 19.2267 24.7285C18.8728 24.7285 18.5859 24.9969 18.5859 25.328L18.5859 34.7698L13.3794 34.7698L13.3794 24.6536C13.3794 23.662 14.2418 22.8551 15.3018 22.8551L23.1516 22.8551C24.2115 22.8551 25.0739 23.662 25.0739 24.6536L25.0739 32.3719C25.0739 32.7029 25.3609 32.9713 25.7147 32.9713C26.0686 32.9713 26.3555 32.7029 26.3555 32.3719L26.3555 24.6536C26.3555 23.0008 24.9182 21.6562 23.1516 21.6562L15.3018 21.6562C13.5351 21.6562 12.0978 23.0008 12.0978 24.6536L12.0978 34.7698L5.12915 34.7698C4.06911 34.7698 3.20676 33.963 3.20676 32.9713L3.20676 20.3074C3.20676 19.9763 2.91984 19.7079 2.56596 19.7079C2.21208 19.7079 1.92517 19.9763 1.92517 20.3074L1.92517 32.9713C1.92517 34.6241 3.36247 35.9687 5.12915 35.9687L33.3242 35.9687C35.0909 35.9687 36.5282 34.6241 36.5282 32.9713Z" transform="translate(-4.939338E-09 0.536133)" id="Shape" fill="#007FFC" fill-rule="evenodd" stroke="none" />
    </g>
</svg>