<?xml version="1.0" encoding="utf-8"?>
<svg width="20px" height="17px" viewBox="0 0 20 17" version="1.1"
    xmlns:xlink="http://www.w3.org/1999/xlink"
    xmlns="http://www.w3.org/2000/svg">
    <desc>Created with Lunacy</desc>
    <path d="M17.9441 4.0482C17.9568 4.2259 17.9568 4.4036 17.9568 4.5812C17.9568 10 13.8325 16.2436 6.2944 16.2436C3.9721 16.2436 1.8147 15.571 0 14.4036C0.32996 14.4416 0.64719 14.4543 0.98984 14.4543C2.9061 14.4543 4.67 13.8071 6.0787 12.703C4.2766 12.665 2.7665 11.4848 2.2462 9.8604C2.5 9.8984 2.7538 9.9238 3.0203 9.9238C3.3883 9.9238 3.7564 9.873 4.099 9.7843C2.2208 9.4035 0.81215 7.7538 0.81215 5.7614L0.81215 5.7107C1.3578 6.0152 1.9924 6.2056 2.6649 6.2309C1.5609 5.4949 0.83754 4.2386 0.83754 2.8172C0.83754 2.0558 1.0405 1.3579 1.3959 0.7487C3.4137 3.236 6.4467 4.8604 9.8477 5.038C9.7842 4.7335 9.7461 4.4163 9.7461 4.099C9.7461 1.8401 11.5736 0 13.8451 0C15.0253 0 16.0913 0.4949 16.84 1.2944C17.7664 1.1168 18.6547 0.7741 19.4416 0.3046C19.137 1.2564 18.4898 2.0559 17.6395 2.5634C18.4644 2.4746 19.2639 2.2462 19.9999 1.9289C19.4416 2.7411 18.7436 3.4644 17.9441 4.0482Z" id="Path" fill="#0D0D0D" stroke="none" />
</svg>